<?xml version="1.0" encoding="UTF-8"?>
<svg id="_レイヤー_2" data-name="レイヤー 2" xmlns="http://www.w3.org/2000/svg" viewBox="0 0 254.58 67.49">
  <defs>
    <style>
      .cls-1 {
        fill: #f6b24f;
      }

      .cls-1, .cls-2, .cls-3, .cls-4 {
        stroke-width: 0px;
      }

      .cls-2 {
        fill: #4caea5;
      }

      .cls-3 {
        fill: #202121;
      }

      .cls-4 {
        fill: #e15e8a;
      }
    </style>
  </defs>
  <g id="_レイヤー_1-2" data-name="レイヤー 1">
    <g>
      <g>
        <path class="cls-3" d="M69.38,16.13c.15-1.75.39-3.84,2.67-5.64,2.33-1.85,5.34-2.23,8.31-2.23,3.11,0,10.64.73,10.64,7.29v14.77c0,2.72.15,3.11.73,3.98h-7.34v-2.33c-1.89,1.41-4.03,3.01-7.77,3.01-5.83,0-8.31-4.18-8.31-7.73,0-4.08,3.25-6.41,5.34-7.29,2.04-.88,6.85-1.75,10.01-2.33v-1.36c-.1-1.17-.19-3.11-2.87-3.11-3.3,0-3.74,2.04-3.94,2.96h-7.48ZM78.85,23.76c-1.26.49-3.21,1.21-3.21,3.16,0,1.21,1.07,2.58,2.82,2.58.92,0,1.8-.34,2.57-.83,2.48-1.55,2.57-3.89,2.62-6.51l-4.81,1.6Z"/>
        <path class="cls-3" d="M104.6,11.22c.73-.78,1.21-1.36,2.53-1.99,1.17-.49,2.82-.92,4.62-.92,1.51,0,3.21.29,4.52,1.02,2.67,1.41,3.35,3.69,3.35,7.63v17.34h-7.43v-14.28c0-2.28-.05-3.11-.34-3.79-.58-1.36-1.89-1.94-3.35-1.94-3.94,0-3.94,3.16-3.94,6.32v13.7h-7.48V8.99h7.53v2.24Z"/>
        <path class="cls-3" d="M125.44,0h7.34v17.64l8.21-8.7h8.99l-8.75,9.04,9.86,16.32h-8.65l-6.51-10.93-3.21,3.01v7.92h-7.29V0Z"/>
        <path class="cls-3" d="M176.69,27.84c-.88,1.31-1.75,2.58-3.06,3.79-2.19,2.04-5.49,3.59-9.57,3.59-7.53,0-12.83-4.81-12.83-13.12,0-6.12,3.01-13.99,13.02-13.99,1.51,0,5.88.15,9.13,3.64,3.3,3.55,3.5,8.5,3.59,11.37h-18.12c-.05,3.16,1.75,6.32,5.78,6.32s5.49-2.67,6.41-4.47l5.64,2.87ZM169.26,18.46c-.15-1.07-.34-2.48-1.41-3.6-.92-.92-2.33-1.41-3.64-1.41-1.8,0-3.06.88-3.79,1.65-1.02,1.12-1.26,2.28-1.51,3.35h10.35Z"/>
      </g>
      <g>
        <path class="cls-4" d="M126.18,41l3.55,17.73,3.84-17.73h7.97l3.45,17.88,3.98-17.88h7.73l-7.58,25.36h-8.11l-3.74-16.91-3.79,16.91h-8.21l-6.95-25.36h7.87Z"/>
        <path class="cls-4" d="M184.77,53.63c0,6.41-3.69,13.46-13.6,13.46-7.14,0-13.65-4.08-13.65-13.46,0-7.77,4.91-13.94,14.62-13.41,10.35.58,12.63,8.79,12.63,13.41ZM166.31,48.63c-.92,1.46-1.26,3.21-1.26,4.96,0,4.03,1.94,7.58,6.12,7.58s6.02-3.26,6.02-7.24c0-2.82-.68-5-2.09-6.36-1.55-1.46-3.3-1.51-4.37-1.41-2.14.15-3.4.87-4.42,2.48Z"/>
        <path class="cls-4" d="M195.99,43.62c1.65-1.41,3.45-2.53,7.34-2.92v6.61l-2.48.39c-3.6.63-4.66,1.17-4.66,4.37v14.28h-7.48v-25.41h7.29v2.67Z"/>
        <path class="cls-4" d="M206.14,32.06h7.34v17.64l8.21-8.7h8.99l-8.75,9.04,9.86,16.32h-8.65l-6.51-10.93-3.21,3.01v7.92h-7.29v-34.3Z"/>
        <path class="cls-4" d="M235,57.81c2.04,1.99,4.57,3.5,7.38,3.5,1.8,0,4.52-.58,4.52-2.48,0-.88-.53-1.21-.97-1.46-1.12-.58-2.87-.73-4.32-.97-1.12-.19-2.28-.44-3.4-.78-1.55-.44-3.11-1.07-4.23-2.19-1.12-1.12-1.9-2.87-1.9-4.76,0-4.18,3.6-8.5,10.69-8.5,5.98,0,9.57,2.57,11.32,3.79l-4.62,4.28c-2.38-1.85-4.62-2.53-6.36-2.53-2.92,0-3.6,1.17-3.6,1.9,0,1.46,1.6,1.75,4.03,2.19,5.1.92,11.03,2.28,11.03,8.31s-6.03,8.89-12,8.89c-7.04,0-10.69-3.4-12.29-4.91l4.71-4.28Z"/>
      </g>
      <ellipse class="cls-2" cx="23.55" cy="48.05" rx="27.45" ry="13.37" transform="translate(-23.77 23.07) rotate(-36.07)"/>
      <ellipse class="cls-1" cx="23.55" cy="34.98" rx="27.45" ry="13.37" transform="translate(-16.08 20.57) rotate(-36.07)"/>
      <ellipse class="cls-4" cx="23.55" cy="21.91" rx="27.45" ry="13.37" transform="translate(-8.38 18.06) rotate(-36.07)"/>
    </g>
  </g>
</svg>