<svg xmlns="http://www.w3.org/2000/svg" viewBox="0 0 324.66 69.6"><defs><style>.cls-1{fill:#222;stroke:#222;stroke-miterlimit:10;stroke-width:2px;}.cls-2{fill:#f06292;}.cls-3{fill:#ffb74d;}.cls-4{fill:#4db6ac;}</style></defs><g id="レイヤー_2" data-name="レイヤー 2"><g id="レイヤー_1-2" data-name="レイヤー 1"><path class="cls-1" d="M129.84,67.51V61.62a20.51,20.51,0,0,1-6.23,4.9,19.72,19.72,0,0,1-9.22,2,22,22,0,0,1-6.5-1,16,16,0,0,1-5.37-2.81,13.65,13.65,0,0,1-5.11-11v-.18a15,15,0,0,1,1.45-6.8,13.17,13.17,0,0,1,4-4.8A18,18,0,0,1,109,39.1a30.07,30.07,0,0,1,7.72-1,41.63,41.63,0,0,1,7.36.55,43.2,43.2,0,0,1,5.83,1.45V39q0-5-3-7.61t-8.71-2.63a29.26,29.26,0,0,0-7.23.81,47.57,47.57,0,0,0-6.41,2.18l-3-8.79A49.58,49.58,0,0,1,109.7,20a39.8,39.8,0,0,1,10-1.09q10.66,0,15.81,5.3t5.15,14.91V67.51Zm.27-20.3a28.31,28.31,0,0,0-4.92-1.35,31.38,31.38,0,0,0-6-.55c-3.43,0-6.11.67-8,2A6.52,6.52,0,0,0,108.25,53v.18a6,6,0,0,0,2.67,5.26,11.31,11.31,0,0,0,6.54,1.81,16.78,16.78,0,0,0,5-.72,13.12,13.12,0,0,0,4-2,9.29,9.29,0,0,0,2.66-3.17,9,9,0,0,0,1-4.13Z"/><path class="cls-1" d="M170.66,67.51h-11V19.67h11v7.5a27.09,27.09,0,0,1,2.57-3.24,16.49,16.49,0,0,1,3.24-2.7,16.28,16.28,0,0,1,4.05-1.87,16.74,16.74,0,0,1,5-.69q8.11,0,12.52,5t4.41,13.42V67.51h-11V40.39c0-3.74-.88-6.61-2.64-8.63a9.38,9.38,0,0,0-7.47-3,10.11,10.11,0,0,0-7.7,3.12q-3,3.12-3,8.72Z"/><path class="cls-1" d="M266.31,67.51H253.67L239.3,46.85l-6.68,7V67.51h-11V1.36h11V40.87l19.78-21.2h13.28l-19,19.48Z"/><path class="cls-1" d="M293.13,56.5a13.51,13.51,0,0,0,9,3.13,15.88,15.88,0,0,0,7-1.45,23,23,0,0,0,5.87-4.26l6.42,5.71a26.41,26.41,0,0,1-8.18,6.52A24.45,24.45,0,0,1,302,68.6a25.49,25.49,0,0,1-9.62-1.81,23.11,23.11,0,0,1-13-12.92,26.24,26.24,0,0,1-1.9-10.19,27.3,27.3,0,0,1,1.71-9.7,24.35,24.35,0,0,1,4.84-7.92,23.34,23.34,0,0,1,7.36-5.4,22,22,0,0,1,9.39-2,22.73,22.73,0,0,1,10,2.08,20.78,20.78,0,0,1,7.14,5.62,24.72,24.72,0,0,1,4.29,8.25,33.59,33.59,0,0,1,1.44,9.88c0,.48,0,1,0,1.45s-.08,1-.14,1.54h-35A14.42,14.42,0,0,0,293.13,56.5Zm19.69-16.26a18.88,18.88,0,0,0-1.17-4.94,12.73,12.73,0,0,0-2.44-4,11.38,11.38,0,0,0-3.66-2.67,11.12,11.12,0,0,0-4.83-1,11,11,0,0,0-8.35,3.49,15.77,15.77,0,0,0-4,9.11Z"/><rect class="cls-2" width="43.26" height="17.31" rx="4.33"/><rect class="cls-3" y="25.96" width="69.22" height="17.31" rx="4.33"/><rect class="cls-4" y="51.92" width="25.96" height="17.31" rx="4.33"/></g></g></svg>